<?xml version="1.0" standalone="no"?>
<!DOCTYPE svg PUBLIC "-//W3C//DTD SVG 20010904//EN"
 "http://www.w3.org/TR/2001/REC-SVG-20010904/DTD/svg10.dtd">
<svg version="1.0" xmlns="http://www.w3.org/2000/svg"
 width="675.000000pt" height="675.000000pt" viewBox="0 0 675.000000 675.000000"
 preserveAspectRatio="xMidYMid meet">
<metadata>
Created by potrace 1.11, written by Peter Selinger 2001-2013
</metadata>
<g transform="translate(0.000000,675.000000) scale(0.100000,-0.100000)"
fill="#000000" stroke="none">
<path d="M2390 6744 c0 -3 -9 -49 -19 -102 -22 -108 -68 -400 -75 -477 -3 -27
-8 -79 -11 -115 -4 -36 -8 -76 -10 -90 -22 -146 -22 -670 -1 -930 9 -105 18
-206 21 -221 2 -9 6 -40 9 -70 4 -30 10 -72 13 -94 4 -22 8 -49 8 -60 1 -11 5
-40 9 -65 4 -25 9 -56 11 -70 3 -21 24 -154 41 -253 2 -16 14 -68 25 -115 11
-48 23 -97 25 -110 3 -13 23 -78 45 -145 242 -737 943 -1266 1929 -1456 109
-21 138 -26 230 -36 30 -4 66 -9 80 -11 14 -3 118 -7 233 -11 l207 -6 1 29 c2
113 -15 732 -26 924 -11 190 -16 269 -21 315 -2 28 -6 77 -8 110 -18 252 -160
796 -293 1125 -92 225 -277 538 -388 656 -5 6 -21 25 -35 43 -70 92 -347 359
-469 451 -18 14 -38 30 -44 35 -63 57 -367 256 -517 340 -86 48 -341 174 -410
204 -169 72 -309 127 -424 166 -140 49 -136 48 -136 39z"/>
<path d="M1690 3346 c-3 -3 -17 -7 -30 -9 -45 -9 -80 -19 -80 -24 0 -3 18 -40
39 -83 52 -106 140 -229 204 -285 139 -124 317 -138 427 -36 l41 38 -21 52
c-63 161 -199 282 -375 333 -48 15 -195 24 -205 14z"/>
<path d="M2485 2561 c-144 -23 -346 -102 -485 -190 -161 -101 -309 -248 -393
-390 l-26 -44 45 -24 c196 -104 439 -159 669 -150 135 6 227 21 373 63 234 67
409 239 457 449 9 37 15 86 13 109 l-3 41 -95 47 c-132 66 -227 89 -380 93
-69 2 -148 0 -175 -4z"/>
<path d="M4489 2176 c-2 -2 -40 -7 -83 -11 -43 -4 -86 -8 -95 -10 -9 -1 -50
-8 -91 -15 -359 -57 -784 -225 -1095 -433 -362 -243 -702 -593 -852 -877 -36
-69 -80 -152 -98 -185 -65 -120 -325 -632 -325 -639 0 -4 4 -5 9 -2 21 13 316
19 1135 21 485 1 901 6 926 9 39 6 80 13 180 32 59 11 191 59 264 97 154 80
299 199 415 342 177 218 263 418 316 730 2 17 7 41 10 55 3 14 7 41 9 60 3 19
7 51 10 70 27 177 37 315 40 549 1 120 -1 174 -9 177 -39 15 -271 32 -451 32
-117 1 -213 -1 -215 -2z"/>
</g>
</svg>
